# xmcd
#
# Track frame offsets:
#	150
#	13371
#	29551
#	42347
#	57043
#	70895
#	85642
#	100107
#	114731
#	127917
#	142163
#	155084
#
# Disc length: 2278 seconds
#
# Revision: 0
# Processed by: cddbd v1.5.2PL0 Copyright (c) Steve Scherf et al.
# Submitted via: audiograbber 1.83.01
#
DISCID=a608e40c
DTITLE=Jordan Davis - Home State
DYEAR=2018
DGENRE=Country
TTITLE0=Take It From Me
TTITLE1=Going 'Round
TTITLE2=More Than I Know
TTITLE3=Slow Dance In A Parking Lot
TTITLE4=Singles You Up
TTITLE5=Sundowners
TTITLE6=Tough To Tie Down
TTITLE7=Selfish
TTITLE8=Made That Way
TTITLE9=So Do I
TTITLE10=Dreamed You Did
TTITLE11=Leaving New Orleans
EXTD=
EXTT0=
EXTT1=
EXTT2=
EXTT3=
EXTT4=
EXTT5=
EXTT6=
EXTT7=
EXTT8=
EXTT9=
EXTT10=
EXTT11=
PLAYORDER=
